<svg width="1200" height="700" viewBox="0 0 1200 700" xmlns="http://www.w3.org/2000/svg">

<defs>
  <linearGradient id="bg" x1="0" y1="0" x2="1" y2="1">
    <stop offset="0%" stop-color="#020617"></stop>
    <stop offset="100%" stop-color="#031a14"></stop>
  </linearGradient>

  <linearGradient id="green" x1="0" y1="0" x2="1" y2="0">
    <stop offset="0%" stop-color="#4ade80"></stop>
    <stop offset="100%" stop-color="#22c55e"></stop>
  </linearGradient>

  <style>
    .title { font: bold 42px monospace; fill:#4ade80; }
    .subtitle { font: 18px monospace; fill:#e5e7eb; }
    .label { font: bold 16px monospace; fill:#4ade80; }
    .text { font: 16px monospace; fill:#e5e7eb; }
    .box { fill: rgba(2,6,23,.75); stroke: rgba(74,222,128,.4); stroke-width:1.2; }
    .line { stroke: rgba(74,222,128,.3); }
  </style>
</defs>

<rect width="1200" height="700" rx="20" fill="url(#bg)"></rect>

<!-- main -->
<rect x="30" y="30" width="1140" height="640" rx="18" fill="rgba(0,0,0,.4)" stroke="url(#green)" stroke-width="1.5"></rect>

<!-- header -->
<text x="70" y="90" class="label">aminmatini78 / README.md</text>

<!-- name -->
<text x="70" y="160" class="title">Amin Matini</text>
<text x="70" y="195" class="subtitle">.NET Tech Lead • Backend Developer • System Design Enthusiast</text>

<line x1="70" y1="230" x2="1130" y2="230" class="line"></line>

<!-- info -->
<text x="70" y="270" class="label">Education :</text>
<text x="250" y="270" class="text">Bachelor’s Degree in Food Industry Engineering</text>

<text x="70" y="310" class="label">University :</text>
<text x="250" y="310" class="text">Ferdowsi University of Mashhad, Iran</text>

<text x="70" y="350" class="label">Position :</text>
<text x="250" y="350" class="text">.NET Tech Lead at Amoot Soft</text>

<line x1="70" y1="390" x2="1130" y2="390" class="line"></line>

<!-- research -->
<rect x="70" y="420" width="480" height="140" rx="12" class="box"></rect>
<text x="90" y="455" class="label">Research Interests</text>

<text x="90" y="485" class="text">• Backend Development</text>
<text x="90" y="510" class="text">• SQL Server Optimization</text>
<text x="90" y="535" class="text">• C# and .NET Ecosystem</text>

<!-- skills -->
<rect x="620" y="420" width="510" height="140" rx="12" class="box"></rect>
<text x="640" y="455" class="label">Technical Skills</text>

<text x="640" y="485" class="text">Language : C#</text>
<text x="640" y="510" class="text">Backend : .NET / ASP.NET Core</text>
<text x="640" y="535" class="text">Database : SQL Server</text>

<!-- contact -->
<rect x="70" y="580" width="1060" height="60" rx="12" fill="rgba(34,197,94,.08)" stroke="rgba(74,222,128,.4)"></rect>

<text x="90" y="615" class="label">Contact :</text>
<text x="210" y="615" class="text">aminmatini78@gmail.com</text>
<text x="520" y="615" class="text">+98 901 963 1855</text>
<text x="820" y="615" class="text">aminmatini.com</text>

<!-- footer (پایین‌تر برده شده) -->
<text x="70" y="670" class="text">&gt; Building scalable backend systems with clean architecture and engineering mindset.</text>

</svg>